HIERARCHY
ROOT root
{
	OFFSET 0.000000 0.000000 0.000000
	CHANNELS 6 Xposition Yposition Zposition Zrotation Yrotation Xrotation
	JOINT lhip
	{
		OFFSET 0.058581 -0.082280 -0.017664
		CHANNELS 3 Zrotation Yrotation Xrotation
		JOINT lknee
		{
			OFFSET 0.043451 -0.386469 0.008037
			CHANNELS 3 Zrotation Yrotation Xrotation
			JOINT lankle
			{
				OFFSET -0.014790 -0.426874 -0.037428
				CHANNELS 3 Zrotation Yrotation Xrotation
				JOINT ltoe
				{
					OFFSET 0.041054 -0.060286 0.122042
					CHANNELS 3 Zrotation Yrotation Xrotation
					End Site
					{
						OFFSET 0.000000 0.000000 0.000000
					}
				}
			}
		}
	}
	JOINT rhip
	{
		OFFSET -0.060310 -0.090513 -0.013543
		CHANNELS 3 Zrotation Yrotation Xrotation
		JOINT rknee
		{
			OFFSET -0.043257 -0.383688 -0.004843
			CHANNELS 3 Zrotation Yrotation Xrotation
			JOINT rankle
			{
				OFFSET 0.019056 -0.420046 -0.034562
				CHANNELS 3 Zrotation Yrotation Xrotation
				JOINT rtoe
				{
					OFFSET -0.034840 -0.062106 0.130323
					CHANNELS 3 Zrotation Yrotation Xrotation
					End Site
					{
						OFFSET 0.000000 0.000000 0.000000
					}
				}
			}
		}
	}
	JOINT lowerback
	{
		OFFSET 0.004439 0.124404 -0.038385
		CHANNELS 3 Zrotation Yrotation Xrotation
		JOINT upperback
		{
			OFFSET 0.004488 0.137956 0.026820
			CHANNELS 3 Zrotation Yrotation Xrotation
			JOINT chest
			{
				OFFSET -0.002265 0.056032 0.002855
				CHANNELS 3 Zrotation Yrotation Xrotation
				JOINT lowerneck
				{
					OFFSET -0.013390 0.211636 -0.033468
					CHANNELS 3 Zrotation Yrotation Xrotation
					JOINT upperneck
					{
						OFFSET 0.010113 0.088937 0.050410
						CHANNELS 3 Zrotation Yrotation Xrotation
						End Site
						{
							OFFSET 0.000000 0.000000 0.000000
						}
					}
				}
				JOINT lclavicle
				{
					OFFSET 0.071702 0.114000 -0.018898
					CHANNELS 3 Zrotation Yrotation Xrotation
					JOINT lshoulder
					{
						OFFSET 0.122921 0.045205 -0.019046
						CHANNELS 3 Zrotation Yrotation Xrotation
						JOINT lelbow
						{
							OFFSET 0.255332 -0.015649 -0.022946
							CHANNELS 3 Zrotation Yrotation Xrotation
							JOINT lwrist
							{
								OFFSET 0.265709 0.012698 -0.007375
								CHANNELS 3 Zrotation Yrotation Xrotation
								End Site
								{
									OFFSET 0.000000 0.000000 0.000000
								}
							}
						}
					}
				}
				JOINT rclavicle
				{
					OFFSET -0.082954 0.112472 -0.023707
					CHANNELS 3 Zrotation Yrotation Xrotation
					JOINT rshoulder
					{
						OFFSET -0.113228 0.046853 -0.008472
						CHANNELS 3 Zrotation Yrotation Xrotation
						JOINT relbow
						{
							OFFSET -0.260127 -0.014369 -0.031269
							CHANNELS 3 Zrotation Yrotation Xrotation
							JOINT rwrist
							{
								OFFSET -0.269108 0.006794 -0.006027
								CHANNELS 3 Zrotation Yrotation Xrotation
								End Site
								{
									OFFSET 0.000000 0.000000 0.000000
								}
							}
						}
					}
				}
			}
		}
	}
}
MOTION
Frames: 8
Frame Time: 0.033333
0.385882 0.215528 0.992276 94.732466 -1.586033 89.710231 3.635832 3.063753 2.415912 -4.459490 -4.670767 3.074345 -0.983710 9.218440 -6.164281 0.000000 -0.000000 0.000000 -11.195439 -7.045208 2.261235 0.342423 -3.361272 6.646924 9.722365 -6.855437 -8.090471 0.000000 -0.000000 0.000000 -3.584713 4.732362 -2.409507 -0.191592 0.050252 2.650530 -0.270447 2.246949 1.246623 0.492446 -4.351720 -1.814133 2.469852 0.146284 -9.615525 -21.795832 3.724597 -8.472782 -54.670465 2.850941 22.846944 6.391183 -25.400257 9.621866 -6.547826 -12.211673 3.660044 17.629409 3.044298 -5.672248 18.912703 13.151184 -2.023832 -82.408338 67.780183 -95.721050 7.352234 11.040409 -40.926778 
0.386529 0.216069 0.991961 94.324608 -1.588683 89.579910 3.582872 3.180302 2.683918 -4.458782 -4.528097 3.041708 -0.879086 9.342917 -6.289848 0.000000 -0.000000 0.000000 -11.301724 -6.934780 2.294663 0.337329 -3.183153 6.770540 9.755429 -6.656974 -8.083255 0.000000 -0.000000 0.000000 -3.702275 4.631699 -2.743827 -0.107726 -0.068208 3.015119 -0.311692 2.305722 1.118933 0.394298 -4.227624 -1.681860 2.556917 0.380507 -9.348442 -21.922216 3.578093 -8.252212 -54.420265 2.725490 22.730896 6.411587 -25.458346 9.695814 -6.326866 -12.229122 3.638104 17.940725 3.063612 -5.457555 19.000726 13.207470 -2.203966 -82.381374 67.649594 -95.704979 6.739384 10.633790 -40.473032 
0.387325 0.216529 0.991549 93.899883 -1.567543 89.488829 3.592838 3.330278 2.979085 -4.492207 -4.347099 2.900010 -0.787166 9.392841 -6.343838 0.000000 -0.000000 0.000000 -11.397515 -6.838382 2.325922 0.379566 -3.034465 6.831239 9.777663 -6.430928 -8.091989 0.000000 -0.000000 0.000000 -3.794353 4.549518 -3.133527 -0.041269 -0.169286 3.372606 -0.348124 2.326138 0.939615 0.307284 -4.190524 -1.379210 2.593872 0.538071 -9.180926 -22.027565 3.400088 -8.003876 -54.290682 2.655822 22.594425 6.594994 -25.444289 9.483041 -6.370438 -12.200373 3.692192 18.191191 3.125988 -5.262067 19.192434 13.181513 -2.300014 -82.177806 67.400073 -95.417674 6.727834 10.493948 -40.147874 
0.388231 0.216943 0.991244 93.478304 -1.532394 89.379384 3.650990 3.486041 3.392682 -4.564493 -4.211933 2.574723 -0.712382 9.432142 -6.369708 0.000000 -0.000000 0.000000 -11.463655 -6.750263 2.399562 0.399958 -2.827300 6.855794 9.798373 -6.216826 -8.060843 0.000000 -0.000000 0.000000 -3.853453 4.471690 -3.621155 0.029955 -0.265293 3.873882 -0.405373 2.353189 0.719342 0.204127 -4.133990 -1.108533 2.615308 0.672207 -8.984424 -22.191359 3.225110 -7.756672 -54.119572 2.483543 22.370186 6.690332 -25.375971 9.314489 -6.485994 -12.169600 3.819856 18.421451 3.176251 -5.095599 19.416896 13.271964 -2.424736 -81.560082 67.101134 -94.636070 6.963693 10.410083 -39.945069 
0.389051 0.217504 0.990937 93.065495 -1.547089 89.271099 3.598517 3.601068 3.779309 -4.563729 -4.045678 2.283231 -0.626599 9.500287 -6.456618 0.000000 -0.000000 0.000000 -11.577083 -6.640420 2.406235 0.404335 -2.645972 6.981150 9.810332 -6.010888 -8.067799 0.000000 -0.000000 0.000000 -3.882829 4.374217 -4.090485 0.035090 -0.350327 4.380296 -0.516564 2.327991 0.508593 0.239476 -3.993112 -0.959575 2.617738 0.827881 -8.617525 -22.357611 3.087919 -7.654725 -53.931718 2.364819 22.196568 6.828716 -25.291113 8.936642 -6.473971 -12.213154 4.094561 18.694129 3.208910 -4.832464 19.579386 13.503934 -2.493025 -80.753892 66.737435 -93.825279 6.867042 10.373933 -39.634279 
0.390106 0.217991 0.990699 92.617502 -1.573329 89.212399 3.526839 3.753592 4.138403 -4.562504 -3.943846 1.980146 -0.527585 9.604984 -6.539417 0.000000 -0.000000 0.000000 -11.708982 -6.508719 2.347557 0.426186 -2.440901 7.128535 9.878749 -5.798310 -8.104640 0.000000 -0.000000 0.000000 -3.957250 4.250586 -4.619000 0.077773 -0.433951 4.796636 -0.610202 2.345154 0.240882 0.101502 -4.056761 -0.683049 2.753616 1.004565 -8.138409 -22.510474 2.970487 -7.443772 -53.794488 2.313486 22.053975 6.966774 -25.254506 8.722646 -6.323132 -12.158593 4.150941 18.931579 3.313008 -4.653333 19.626656 13.522429 -2.574471 -79.836135 66.624119 -92.986932 6.715984 10.436077 -39.299264 
0.391886 0.218047 0.990677 92.338509 -1.530018 89.102815 3.618394 3.860591 4.515717 -4.658273 -3.836010 1.777647 -0.529627 9.667130 -6.647355 0.000000 -0.000000 0.000000 -11.713045 -6.571975 2.477730 0.399997 -2.203097 7.176950 9.919983 -5.653446 -8.127407 0.000000 -0.000000 0.000000 -4.128245 4.217752 -5.408241 0.212389 -0.738407 5.531031 -0.612515 2.399327 -0.075924 -0.188013 -4.132413 -0.386335 3.057261 1.183615 -7.656368 -22.756700 2.712168 -7.049390 -53.554666 2.131868 21.731708 6.991757 -25.070979 8.545181 -6.336019 -12.326732 4.432949 19.168038 3.424025 -4.376228 19.540817 13.426705 -2.896453 -79.117957 66.602061 -92.277692 6.783055 10.329259 -39.070807 
0.392972 0.218360 0.990575 92.025256 -1.558525 89.004700 3.599948 3.955717 4.814439 -4.754997 -3.659463 1.643222 -0.480342 9.696448 -6.773741 0.000000 -0.000000 0.000000 -11.819888 -6.500145 2.427174 0.380091 -2.052337 7.482720 9.963298 -5.435910 -8.195718 0.000000 -0.000000 0.000000 -4.225195 4.125275 -5.925295 0.228248 -0.913490 5.951364 -0.657682 2.335604 -0.226983 -0.108655 -3.983570 -0.127603 3.097664 1.324083 -7.406367 -22.979776 2.499156 -6.959792 -53.257040 2.041031 21.490722 6.989989 -24.660355 8.347097 -6.252003 -13.194067 5.208070 19.357440 3.566478 -4.287160 19.671407 13.503967 -2.873298 -78.530219 66.356162 -91.442956 6.593487 10.409805 -39.037526 
